<svg width="24" height="24" viewBox="0 0 24 24" fill="none" xmlns="http://www.w3.org/2000/svg">
<path fill-rule="evenodd" clip-rule="evenodd" d="M4.62061 7.11313C5.54414 5.96783 6.88583 5.125 8.444 5.125C9.87723 5.125 11.1196 5.82857 12 6.57005C12.8811 5.8278 14.1227 5.125 15.556 5.125C17.1141 5.125 18.4558 5.96748 19.3794 7.11288C20.3037 8.25912 20.875 9.78121 20.875 11.32C20.875 14.5438 20.4042 16.9425 18.5055 19.7832C18.4965 19.7967 18.4871 19.8099 18.4774 19.8228C17.7138 20.8385 16.7567 21.5588 15.632 21.7939C14.4993 22.0306 13.3365 21.7461 12.2287 21.023C12.0882 20.9374 11.9111 20.938 11.7726 21.0228C10.6643 21.7455 9.50113 22.0301 8.36823 21.7935C7.24342 21.5586 6.2863 20.8386 5.52261 19.8228C5.51292 19.8099 5.50359 19.7968 5.49463 19.7834C3.5957 16.9435 3.125 14.5437 3.125 11.319C3.125 9.78109 3.69639 8.25928 4.62061 7.11313ZM5.98289 8.21162C5.29861 9.06022 4.875 10.1979 4.875 11.319C4.875 14.2901 5.28999 16.3212 6.93562 18.79C7.51872 19.5589 8.1344 19.9569 8.72602 20.0805C9.31145 20.2028 10.0097 20.0849 10.8229 19.5528L10.8361 19.5444C11.5472 19.097 12.4531 19.0976 13.1642 19.5439L13.1786 19.5531C13.991 20.0855 14.6888 20.2032 15.274 20.0809C15.8654 19.9572 16.4812 19.559 17.0643 18.7901C18.7101 16.3202 19.125 14.2899 19.125 11.32C19.125 10.1978 18.7013 9.05988 18.0171 8.21137C17.3322 7.36202 16.4519 6.875 15.556 6.875C14.6009 6.875 13.6612 7.40816 12.9292 8.08323L12.924 8.088C12.671 8.31757 12.3416 8.44472 12 8.44472C11.6584 8.44472 11.329 8.31755 11.076 8.08798L11.0708 8.08328C10.3397 7.40907 9.39902 6.875 8.444 6.875C7.54817 6.875 6.66786 7.36217 5.98289 8.21162Z" fill="#747D82"/>
<path fill-rule="evenodd" clip-rule="evenodd" d="M9.24 8.53308C9.49788 8.94177 9.37562 9.48213 8.96692 9.74C8.54814 10.0042 8.29721 10.277 8.13883 10.5906C7.97568 10.9138 7.875 11.3514 7.875 12C7.875 12.4832 7.48325 12.875 7 12.875C6.51675 12.875 6.125 12.4832 6.125 12C6.125 11.1786 6.25132 10.4462 6.57667 9.80187C6.90679 9.14805 7.40586 8.65576 8.03308 8.26C8.44177 8.00212 8.98213 8.12438 9.24 8.53308Z" fill="#747D82"/>
<path fill-rule="evenodd" clip-rule="evenodd" d="M13.4607 4.98254C13.0516 5.702 12.875 6.55313 12.875 7C12.875 7.48325 12.4832 7.875 12 7.875C11.5168 7.875 11.125 7.48325 11.125 7C11.125 6.24687 11.3819 5.098 11.9395 4.11746C12.4992 3.13319 13.4861 2.125 15 2.125C15.4832 2.125 15.875 2.51675 15.875 3C15.875 3.48325 15.4832 3.875 15 3.875C14.3809 3.875 13.8678 4.26681 13.4607 4.98254Z" fill="#747D82"/>
</svg>
