<svg width="24" height="24" viewBox="0 0 24 24" fill="none" xmlns="http://www.w3.org/2000/svg">
<path fill-rule="evenodd" clip-rule="evenodd" d="M4 3C4.55228 3 5 3.44772 5 4V7C5 7.26264 5.05173 7.52272 5.15224 7.76537C5.25275 8.00802 5.40007 8.2285 5.58579 8.41421C5.70964 8.53807 5.84896 8.64485 6 8.73205V4C6 3.44772 6.44772 3 7 3C7.55228 3 8 3.44772 8 4V8.73205C8.15104 8.64485 8.29036 8.53807 8.41421 8.41421C8.59993 8.2285 8.74725 8.00802 8.84776 7.76537C8.94827 7.52272 9 7.26264 9 7V4C9 3.44772 9.44772 3 10 3C10.5523 3 11 3.44772 11 4V7C11 7.52529 10.8965 8.04543 10.6955 8.53073C10.4945 9.01604 10.1999 9.45699 9.82843 9.82843C9.45699 10.1999 9.01604 10.4945 8.53073 10.6955C8.3578 10.7672 8.18044 10.8264 8 10.873V21C8 21.5523 7.55228 22 7 22C6.44772 22 6 21.5523 6 21V10.873C5.81956 10.8264 5.6422 10.7672 5.46927 10.6955C4.98396 10.4945 4.54301 10.1999 4.17157 9.82843C3.80014 9.45699 3.5055 9.01604 3.30448 8.53073C3.10346 8.04543 3 7.52529 3 7V4C3 3.44772 3.44772 3 4 3Z" fill="#747D82"/>
<path fill-rule="evenodd" clip-rule="evenodd" d="M14.0787 4.57157C14.792 3.62044 15.8311 3 17 3C18.1689 3 19.208 3.62044 19.9213 4.57157C20.6305 5.5172 21 6.75252 21 8C21 9.24748 20.6305 10.4828 19.9213 11.4284C19.208 12.3796 18.1689 13 17 13C15.8311 13 14.792 12.3796 14.0787 11.4284C13.3695 10.4828 13 9.24748 13 8C13 6.75252 13.3695 5.5172 14.0787 4.57157ZM17 5C16.5776 5 16.0905 5.22241 15.6787 5.77157C15.2627 6.32624 15 7.12574 15 8C15 8.87426 15.2627 9.67376 15.6787 10.2284C16.0905 10.7776 16.5776 11 17 11C17.4224 11 17.9095 10.7776 18.3213 10.2284C18.7373 9.67376 19 8.87426 19 8C19 7.12574 18.7373 6.32624 18.3213 5.77157C17.9095 5.22241 17.4224 5 17 5Z" fill="#747D82"/>
<path fill-rule="evenodd" clip-rule="evenodd" d="M17 11C17.5523 11 18 11.4477 18 12V21C18 21.5523 17.5523 22 17 22C16.4477 22 16 21.5523 16 21V12C16 11.4477 16.4477 11 17 11Z" fill="#747D82"/>
</svg>
