<?xml version="1.0" encoding="UTF-8"?>
<svg id="Layer_1" data-name="Layer 1" xmlns="http://www.w3.org/2000/svg" width="45" height="53.31" xmlns:xlink="http://www.w3.org/1999/xlink" viewBox="0 0 45 53.31">
  <defs>
    <style>
      .cls-1 {
        fill: none;
        opacity: .75;
      }

      .cls-2 {
        fill: url(#linear-gradient);
      }

      .cls-3 {
        fill: #eee;
      }

      .cls-4 {
        fill: #fff;
      }

      .cls-5 {
        fill: #f15b38;
      }

      .cls-6 {
        fill: #dad7ec;
      }

      .cls-7 {
        fill: #0e0809;
      }

      .cls-8 {
        fill: #283943;
      }

      .cls-9 {
        fill: url(#linear-gradient-2);
      }
    </style>
    <linearGradient id="linear-gradient" x1="44.28" y1="42.49" x2="1.3" y2="17.66" gradientTransform="translate(0 52.25) scale(1 -1)" gradientUnits="userSpaceOnUse">
      <stop offset="0" stop-color="#d18e29"/>
      <stop offset=".05" stop-color="#dba13d"/>
      <stop offset=".15" stop-color="#f8d473"/>
      <stop offset=".18" stop-color="#ffe180"/>
      <stop offset=".2" stop-color="#f9d777"/>
      <stop offset=".24" stop-color="#e8bc61"/>
      <stop offset=".3" stop-color="#ce913d"/>
      <stop offset=".32" stop-color="#c17a2a"/>
      <stop offset=".35" stop-color="#c57f29"/>
      <stop offset=".39" stop-color="#d19027"/>
      <stop offset=".44" stop-color="#e5ab24"/>
      <stop offset=".48" stop-color="#fcc921"/>
      <stop offset=".63" stop-color="#ffd68a"/>
      <stop offset=".73" stop-color="#fed78b"/>
      <stop offset=".76" stop-color="#feda92"/>
      <stop offset=".79" stop-color="#fee19e"/>
      <stop offset=".81" stop-color="#feebb0"/>
      <stop offset=".84" stop-color="#f4d896"/>
      <stop offset=".88" stop-color="#dca956"/>
      <stop offset=".92" stop-color="#cc892a"/>
      <stop offset=".92" stop-color="#cd8b2c"/>
      <stop offset=".92" stop-color="#dca546"/>
      <stop offset=".93" stop-color="#e9bb5b"/>
      <stop offset=".94" stop-color="#f3cc6b"/>
      <stop offset=".95" stop-color="#f9d877"/>
      <stop offset=".96" stop-color="#fddf7e"/>
      <stop offset="1" stop-color="#ffe180"/>
    </linearGradient>
    <linearGradient id="linear-gradient-2" x1="41.09" y1="40.12" x2="4.4" y2="18.95" gradientTransform="translate(0 52.25) scale(1 -1)" gradientUnits="userSpaceOnUse">
      <stop offset="0" stop-color="#ffe180"/>
      <stop offset=".09" stop-color="#fee182"/>
      <stop offset=".13" stop-color="#fee289"/>
      <stop offset=".15" stop-color="#fee595"/>
      <stop offset=".18" stop-color="#fee9a7"/>
      <stop offset=".19" stop-color="#feebb0"/>
      <stop offset=".21" stop-color="#fee19e"/>
      <stop offset=".24" stop-color="#feda92"/>
      <stop offset=".27" stop-color="#fed78b"/>
      <stop offset=".37" stop-color="#ffd68a"/>
      <stop offset=".52" stop-color="#fcc921"/>
      <stop offset=".56" stop-color="#e5ab24"/>
      <stop offset=".61" stop-color="#d19027"/>
      <stop offset=".65" stop-color="#c57f29"/>
      <stop offset=".68" stop-color="#c17a2a"/>
      <stop offset=".7" stop-color="#ce913d"/>
      <stop offset=".76" stop-color="#e8bc61"/>
      <stop offset=".8" stop-color="#f9d777"/>
      <stop offset=".82" stop-color="#ffe180"/>
      <stop offset=".85" stop-color="#f8d473"/>
      <stop offset=".95" stop-color="#dba13d"/>
      <stop offset="1" stop-color="#d18e29"/>
    </linearGradient>
  </defs>
  <g>
    <path class="cls-2" d="m9.7,45.29c-4.78-3-7.68-8.16-7.68-13.81V7.21c3.33-.87,5.44-3.88,5.53-7.21h29.95c.09,3.33,2.4,6.36,5.31,7.21v24.26c0,5.64-2.77,10.8-7.54,13.8l-12.78,8.04-12.79-8.04h0Z"/>
    <path class="cls-9" d="m11.47,42.47c-3.82-2.4-6.12-6.51-6.12-10.99V9.43c2.37-1.32,4.14-3.49,4.98-6.1h24.43c.84,2.49,2.55,4.66,4.72,6.01v22.15c0,4.51-2.23,8.62-5.98,10.98l-11.01,6.93-11.02-6.93Z"/>
    <path d="m11.68,42.11c-3.7-2.32-5.92-6.3-5.92-10.63V9.67c2.26-1.32,3.97-3.42,4.86-5.92h23.83c.88,2.38,2.53,4.48,4.6,5.82v21.91c0,4.38-2.16,8.34-5.79,10.62l-10.78,6.79s-10.8-6.78-10.8-6.78Z"/>
    <g>
      <path class="cls-8" d="m11.91,41.76c-3.58-2.25-5.73-6.09-5.73-10.29V9.91c2.14-1.32,3.82-3.34,4.74-5.74h23.26c.9,2.26,2.5,4.29,4.47,5.62v21.7c0,4.23-2.1,8.07-5.59,10.27l-10.56,6.64s-10.59-6.64-10.59-6.64Z"/>
      <g class="cls-1">
        <path class="cls-7" d="m11.91,41.76c-3.58-2.25-5.73-6.09-5.73-10.29V9.91c2.14-1.32,3.82-3.34,4.74-5.74h23.26c.9,2.26,2.5,4.29,4.47,5.62v21.7c0,4.23-2.1,8.07-5.59,10.27l-10.56,6.64s-10.59-6.64-10.59-6.64Z"/>
      </g>
    </g>
    <g>
      <path class="cls-4" d="m18.37,12.63v1.8c0,2.2-1.06,3.42-3.24,3.42h-1.02v5.19h-2.17v-13.81h3.19c2.17,0,3.24,1.2,3.24,3.42h0Zm-4.26-1.44v4.68h1.02c.69,0,1.06-.31,1.06-1.3v-2.07c0-.99-.37-1.3-1.06-1.3h-1.02Z"/>
      <path class="cls-4" d="m27.71,17.88v1.83c0,2.2-1.11,3.48-3.24,3.48s-3.24-1.26-3.24-3.48v-7.18c0-2.2,1.11-3.48,3.24-3.48s3.24,1.26,3.24,3.48v1.33h-2.05v-1.48c0-.99-.43-1.36-1.12-1.36s-1.12.37-1.12,1.36v7.45c0,.99.43,1.33,1.12,1.33s1.12-.36,1.12-1.33v-1.98h2.05v.03Z"/>
      <path class="cls-4" d="m31,9.22h2.17v13.81h-2.17v-13.81Z"/>
    </g>
  </g>
  <path class="cls-3" d="m42.02,39.75H2.98c-.51,0-.94-.34-1.06-.84L.03,30.82c-.16-.69.36-1.33,1.06-1.33h42.81c.7,0,1.21.66,1.06,1.33l-1.89,8.1c-.12.49-.55.84-1.06.84Z"/>
  <path class="cls-6" d="m23.6,42.54h-.12v-.34c0-.33-.18-.63-.46-.79-.28-.16-.64-.16-.93,0s-.46.46-.46.79v.34h-.12c-.13,0-.22.1-.22.22v1.5s.03.12.07.16.1.07.16.07h2.08s.12-.03.16-.07.07-.1.07-.16v-1.5s-.03-.12-.07-.16-.1-.07-.16-.07h0Zm-.81,1.15s0,.06-.03.07c-.01.01-.04.03-.07.03h-.22s-.12-.04-.12-.12v-.34s.04-.12.12-.12h.22s.06,0,.07.03c.01.01.03.04.03.07v.37Zm.46-1.15h-1.39v-.34c0-.18.07-.36.21-.49s.3-.21.49-.21.36.07.49.21.21.3.21.49v.34h-.01Z"/>
  <path class="cls-4" d="m11.94,26.8c0-.67.51-1.2,1.21-1.2.39,0,.69.15.9.4.03.03,0,.07,0,.1l-.28.28s-.09.03-.13,0c-.13-.13-.25-.19-.45-.19-.37,0-.61.27-.61.6s.24.63.63.63c.18,0,.31-.07.43-.19.03-.03.09-.04.13,0l.28.28s.04.07,0,.1c-.19.25-.51.4-.88.4-.7,0-1.21-.52-1.21-1.21"/>
  <path class="cls-4" d="m14.19,26.81c0-.67.51-1.21,1.21-1.21s1.21.52,1.21,1.21-.51,1.21-1.21,1.21-1.21-.52-1.21-1.21Zm1.21.61c.33,0,.58-.22.58-.61s-.25-.61-.58-.61-.58.22-.58.61.25.61.58.61Z"/>
  <path class="cls-4" d="m16.98,27.89v-2.16s.03-.07.07-.07h.48s.07,0,.07.07v.27c.13-.22.37-.4.7-.4.48,0,.84.36.84.94v1.33s-.03.07-.07.07h-.49s-.07-.03-.07-.07v-1.2c0-.33-.15-.49-.42-.49s-.45.16-.45.49v1.2s-.03.07-.07.07h-.51s-.07,0-.07-.06h0Z"/>
  <path class="cls-4" d="m20.16,27.91l-.87-2.16s0-.09.06-.09h.51s.07,0,.09.06l.54,1.5.54-1.5s.04-.06.09-.06h.51s.07.03.06.09l-.87,2.16s-.04.06-.09.06h-.51s-.04,0-.06-.06h0Z"/>
  <path class="cls-4" d="m21.76,26.8c0-.67.46-1.2,1.18-1.2s1.11.51,1.11,1.09c0,.22-.06.36-.25.36h-1.41c.07.28.31.45.67.45.18,0,.34-.03.54-.13h.09l.16.24s0,.07-.03.1c-.19.19-.49.3-.82.3-.73,0-1.24-.52-1.24-1.21h0Zm1.71-.19c-.04-.3-.24-.45-.52-.45s-.51.15-.57.45h1.09Z"/>
  <path class="cls-4" d="m24.43,27.89v-2.16s.03-.07.07-.07h.48s.07,0,.07.07v.3c.1-.24.24-.42.51-.42.12,0,.16.03.21.06.03.03.04.06.04.1v.4s-.03.07-.1.06c-.06,0-.1-.03-.16-.03-.31,0-.48.21-.48.54v1.15s-.03.07-.07.07h-.51s-.06-.03-.06-.07h0Z"/>
  <path class="cls-4" d="m26.42,27.32v-1.17h-.3s-.07-.03-.07-.07v-.36s.03-.07.07-.07h.3v-.54s.03-.07.07-.07h.51s.07.03.07.07v.54h.37s.07.03.07.07v.36s-.03.07-.07.07h-.37v1.08c0,.13.09.19.19.19h.13s.09,0,.09.07v.36c0,.12-.22.13-.4.13-.34,0-.67-.18-.67-.67h0Z"/>
  <path class="cls-4" d="m27.82,24.89c0-.19.15-.36.37-.36s.36.15.36.36-.15.37-.36.37-.37-.16-.37-.37Zm.04.84s.03-.07.07-.07h.51s.07.03.07.07v2.16s-.03.07-.07.07h-.51s-.07-.03-.07-.07v-2.16Z"/>
  <path class="cls-4" d="m28.91,27.89v-.4s0-.07.03-.09l1.08-1.21h-1.02s-.07-.03-.07-.07v-.39s.03-.07.07-.07h1.68s.07.03.07.07v.4s0,.07-.03.09l-1.08,1.21h1.05s.07.03.07.07v.39s-.03.07-.07.07h-1.69s-.09,0-.09-.06h0Z"/>
  <path class="cls-4" d="m30.88,26.8c0-.67.46-1.2,1.18-1.2s1.11.51,1.11,1.09c0,.22-.06.36-.25.36h-1.41c.07.28.31.45.67.45.18,0,.34-.03.54-.13h.09l.16.24s0,.07-.03.1c-.19.19-.49.3-.82.3-.73,0-1.24-.52-1.24-1.21h0Zm1.72-.19c-.04-.3-.24-.45-.52-.45s-.51.15-.57.45h1.09Z"/>
  <g>
    <path class="cls-5" d="m2.53,34.66c0-1.81,1.2-2.86,2.58-2.86.7,0,1.27.33,1.63.7l-.64.79c-.27-.25-.57-.43-.96-.43-.75,0-1.33.66-1.33,1.75s.52,1.77,1.32,1.77c.45,0,.79-.22,1.06-.51l.64.78c-.45.52-1.05.79-1.77.79-1.38,0-2.53-.96-2.53-2.8h0Z"/>
    <path class="cls-5" d="m7.95,31.9h3.42v1.03h-2.19v1.09h1.86v1.03h-1.86v1.26h2.26v1.03h-3.51v-5.46h.01Z"/>
    <path class="cls-5" d="m12.82,31.9h1.96c1.15,0,2.1.4,2.1,1.69s-.94,1.8-2.1,1.8h-.73v1.96h-1.23v-5.46Zm1.86,2.52c.64,0,1-.28,1-.81s-.34-.72-1-.72h-.63v1.53h.63Zm-.12.66l.85-.79,1.74,3.07h-1.38l-1.21-2.29h0Z"/>
    <path class="cls-5" d="m19.15,32.93h-1.5v-1.03h4.24v1.03h-1.5v4.42h-1.23v-4.42h-.01Z"/>
    <path class="cls-5" d="m23.02,31.9h1.23v5.46h-1.23v-5.46Z"/>
    <path class="cls-5" d="m25.82,31.9h3.45v1.03h-2.2v1.26h1.89v1.03h-1.89v2.13h-1.23v-5.46h-.01Z"/>
    <path class="cls-5" d="m30.5,31.9h1.23v5.46h-1.23v-5.46Z"/>
    <path class="cls-5" d="m33.31,31.9h3.42v1.03h-2.19v1.09h1.86v1.03h-1.86v1.26h2.26v1.03h-3.51v-5.46h.01Z"/>
    <path class="cls-5" d="m38.17,31.9h1.54c1.66,0,2.74.82,2.74,2.7s-1.08,2.76-2.67,2.76h-1.6v-5.46h-.01Zm1.47,4.47c.93,0,1.54-.45,1.54-1.75s-.63-1.71-1.54-1.71h-.24v3.46h.24Z"/>
  </g>
</svg>