<svg width="24" height="24" viewBox="0 0 24 24" fill="none" xmlns="http://www.w3.org/2000/svg">
<g clip-path="url(#clip0_34_16)">
<path d="M17.4246 18C17.4246 17.7729 17.3819 17.473 17.3328 17.3389C17.3294 17.3295 17.3252 17.3201 17.3221 17.3105C17.1891 16.9044 16.8303 16.6014 16.0936 16.0752C15.4332 15.6035 14.5164 14.9759 13.9344 13.9238L13.9334 13.9219C13.3608 12.8807 13.0638 12.3885 12.7947 12.123C12.686 12.0158 12.6005 11.9669 12.5125 11.9365C12.4122 11.9019 12.2613 11.875 11.9998 11.875C11.775 11.875 11.6311 11.9086 11.5242 11.9541C11.4182 11.9993 11.3012 12.0762 11.158 12.2275C10.8368 12.5671 10.498 13.1421 9.93048 14.1699L9.9295 14.1709C9.34024 15.2359 8.44573 15.8016 7.80939 16.2197C7.11151 16.6782 6.80196 16.9239 6.67462 17.3115C6.67161 17.3207 6.66818 17.3298 6.66486 17.3389C6.61633 17.4715 6.57344 17.77 6.57501 17.9941V18L6.58087 18.1387C6.63364 18.8097 7.06941 19.1249 7.49982 19.125C7.95968 19.125 8.55564 18.9351 9.3924 18.667C10.1482 18.4248 11.0898 18.125 11.9998 18.125C12.9098 18.125 13.8514 18.4248 14.6072 18.667C15.444 18.9351 16.0399 19.1249 16.4998 19.125C16.9592 19.125 17.4246 18.7672 17.4246 18ZM19.1746 18C19.1746 19.5868 18.0664 20.875 16.4998 20.875C15.7008 20.8749 14.7963 20.5648 14.0731 20.333C13.2689 20.0753 12.5897 19.875 11.9998 19.875C11.4099 19.8751 10.7308 20.0753 9.92658 20.333C9.20326 20.5648 8.29887 20.875 7.49982 20.875C6.03114 20.8749 4.96533 19.7417 4.83771 18.2939L4.82501 18C4.82329 17.662 4.87522 17.1562 5.01251 16.7646C5.36028 15.7066 6.24017 15.1575 6.84845 14.7578C7.51814 14.3178 8.04572 13.9606 8.39826 13.3232C8.93039 12.3596 9.37979 11.5611 9.88654 11.0254C10.1575 10.739 10.4659 10.5023 10.8377 10.3437C11.2084 10.1858 11.5959 10.125 11.9998 10.125C12.3676 10.125 12.7318 10.1607 13.0838 10.2822C13.4481 10.408 13.7529 10.6093 14.0242 10.8769C14.515 11.3611 14.9388 12.1183 15.4656 13.0762C15.8256 13.7269 16.3989 14.1426 17.1111 14.6514C17.7413 15.1014 18.6255 15.7101 18.9744 16.7373C19.1194 17.1333 19.1746 17.6572 19.1746 18Z" fill="#747D82"/>
<path d="M19.7821 7.12499C19.9745 7.12485 20.1654 7.1534 20.3485 7.20995L20.5292 7.27636L20.536 7.27929C21.3136 7.61613 21.6918 8.37475 21.8183 9.08593C21.9481 9.81639 21.8522 10.6538 21.5448 11.4492C21.2841 12.1214 20.8949 12.7066 20.4286 13.1338C19.972 13.5521 19.3762 13.875 18.7177 13.875C18.4654 13.8749 18.2101 13.8256 17.9686 13.7226L17.9657 13.7217C17.1846 13.3851 16.805 12.6251 16.6796 11.9121C16.551 11.1811 16.6493 10.3441 16.9579 9.5498C17.2168 8.88256 17.6022 8.30216 18.0634 7.87597C18.5153 7.45842 19.1022 7.13562 19.7528 7.12499H19.7821ZM19.6981 8.88769C19.5964 8.91391 19.4401 8.98727 19.2509 9.1621C19.0382 9.35875 18.8246 9.64875 18.6581 10.0185L18.5897 10.1826C18.3797 10.723 18.3376 11.2364 18.4032 11.6094C18.4714 11.9965 18.6191 12.0962 18.6571 12.1133C18.6732 12.1199 18.6931 12.1249 18.7177 12.125C18.7981 12.125 18.991 12.0772 19.246 11.8437C19.4914 11.619 19.7378 11.2691 19.913 10.8174C20.1212 10.2782 20.162 9.76609 20.0956 9.39257C20.0278 9.0111 19.884 8.90637 19.8436 8.88671C19.8244 8.87911 19.8038 8.87496 19.7831 8.87499H19.7811L19.6981 8.88769Z" fill="#747D82"/>
<path d="M9.0249 3.12499C9.79734 3.12499 10.4532 3.54391 10.9106 4.07714C11.3161 4.54992 11.6149 5.16177 11.7661 5.83788L11.8218 6.13183C11.9515 6.97017 11.8447 7.80347 11.5181 8.47753C11.2 9.13399 10.6257 9.71289 9.81104 9.8457C9.80481 9.84696 9.79866 9.84845 9.79248 9.8496C9.77988 9.85154 9.76711 9.85471 9.7544 9.85644L9.75342 9.85546C9.62369 9.87566 9.51183 9.87406 9.4751 9.87402L9.47412 9.87499L9.47217 9.87402C8.69964 9.87296 8.04454 9.45327 7.58838 8.92089C7.12547 8.38061 6.80286 7.6591 6.67822 6.86913L6.67725 6.86718C6.54748 6.02884 6.65436 5.19651 6.98096 4.52245C7.29892 3.86627 7.87287 3.28743 8.68701 3.15429C8.69306 3.15306 8.69956 3.15151 8.70557 3.15038C8.71853 3.14838 8.73155 3.14532 8.74463 3.14355C8.87583 3.12301 8.98898 3.12499 9.0249 3.12499ZM8.97998 4.87792C8.88085 4.89137 8.70699 4.97189 8.55518 5.28515C8.40475 5.59562 8.32413 6.06003 8.40674 6.59667L8.4419 6.78124C8.53664 7.20069 8.71514 7.54607 8.91748 7.78222C9.15499 8.05941 9.36389 8.12499 9.4751 8.12499H9.50244C9.50799 8.12413 9.51348 8.12282 9.51904 8.12206C9.61817 8.10862 9.79204 8.02806 9.94385 7.71484C10.0944 7.40418 10.1751 6.93939 10.0923 6.40234L10.0571 6.21777C9.9627 5.79694 9.78433 5.45211 9.58252 5.21679C9.34598 4.94097 9.13727 4.87499 9.0249 4.87499H8.99658C8.99103 4.87586 8.98555 4.87717 8.97998 4.87792Z" fill="#747D82"/>
<path d="M14.9738 3.12597C15.0669 3.12585 15.1599 3.13192 15.2521 3.14452L15.2531 3.14355C16.0981 3.25801 16.6921 3.85049 17.0178 4.52245C17.3036 5.11248 17.4211 5.82345 17.3586 6.5537L17.3205 6.86718C17.1981 7.65816 16.8752 8.38028 16.4123 8.92089C15.9557 9.45402 15.2998 9.87482 14.5265 9.87499C14.4294 9.87499 14.3366 9.86751 14.2512 9.85644H14.2463C13.4013 9.74187 12.8072 9.14948 12.4816 8.47753C12.155 7.80331 12.0495 6.97115 12.1799 6.1328C12.3032 5.34083 12.6252 4.61862 13.0881 4.07812C13.5448 3.54497 14.2001 3.12677 14.9719 3.12597H14.9738ZM14.9738 4.87499C14.8615 4.87509 14.6531 4.9414 14.4172 5.21679C14.1872 5.48546 13.987 5.89684 13.9084 6.40136C13.8248 6.93888 13.9063 7.40413 14.0568 7.71483C14.207 8.02459 14.3784 8.1064 14.4787 8.12108C14.5002 8.12379 14.516 8.12499 14.5265 8.12499C14.638 8.1248 14.8465 8.05863 15.0832 7.78222C15.3139 7.51275 15.5133 7.10126 15.591 6.5996C15.6746 6.06207 15.5941 5.59585 15.4435 5.28515C15.292 4.97242 15.1186 4.89148 15.0187 4.87792H15.0158C15.0025 4.87609 14.9891 4.87496 14.9758 4.87499H14.9738Z" fill="#747D82"/>
<path d="M4.21705 7.12499C4.87535 7.12499 5.46997 7.44809 5.92603 7.8662C6.39192 8.29343 6.78155 8.87775 7.04224 9.5498C7.35043 10.3433 7.44855 11.1804 7.32056 11.9111C7.19578 12.6233 6.81759 13.3847 6.03638 13.7217L6.0315 13.7236C5.79126 13.8252 5.53749 13.8749 5.28345 13.875C4.62501 13.875 4.02959 13.552 3.57349 13.1338C3.10777 12.7067 2.71893 12.1229 2.45826 11.4512L2.35279 11.1514C2.12916 10.4494 2.06792 9.72843 2.17994 9.08886C2.30472 8.37681 2.6821 7.61534 3.46314 7.27831L3.469 7.27636C3.70945 7.17463 3.96277 7.125 4.21705 7.12499ZM4.15455 8.88671C4.1161 8.90474 3.97097 9.00632 3.90357 9.39062C3.84629 9.71765 3.87132 10.1517 4.0188 10.6162L4.09009 10.8174L4.15845 10.9824C4.32641 11.3551 4.54262 11.6471 4.75709 11.8437C5.01185 12.0773 5.20393 12.125 5.28345 12.125C5.30704 12.125 5.32584 12.1194 5.344 12.1123C5.38094 12.0955 5.52896 11.997 5.59693 11.6094C5.65421 11.2824 5.62915 10.8483 5.48169 10.3838L5.41041 10.1826C5.23509 9.73066 4.98853 9.38102 4.74341 9.15624C4.48855 8.92256 4.29659 8.87499 4.21705 8.87499C4.19284 8.875 4.1731 8.87934 4.15455 8.88671Z" fill="#747D82"/>
</g>
<defs>
<clipPath id="clip0_34_16">
<rect width="24" height="24" fill="white"/>
</clipPath>
</defs>
</svg>
