<svg width="24" height="24" viewBox="0 0 24 24" fill="none" xmlns="http://www.w3.org/2000/svg">
<path fill-rule="evenodd" clip-rule="evenodd" d="M16.9524 3.1263C16.9682 3.12543 16.9841 3.125 17 3.125C18.0277 3.125 19.0133 3.53326 19.74 4.25996C20.4667 4.98667 20.875 5.97229 20.875 7C20.875 7.01589 20.8746 7.03177 20.8737 7.04764C20.7674 8.99777 20.0852 10.8726 18.9133 12.435C17.8574 13.843 16.4465 14.9403 14.8297 15.6178C14.7149 16.5782 14.3985 17.5059 13.8985 18.3391C13.297 19.3416 12.4499 20.1741 11.437 20.758C11.1822 20.9049 10.8707 20.914 10.6078 20.7822C10.3449 20.6504 10.1658 20.3953 10.1311 20.1033C9.94239 18.5152 9.22487 17.0368 8.09404 15.906C6.9632 14.7751 5.48481 14.0576 3.89674 13.8689C3.6047 13.8342 3.34963 13.6551 3.21782 13.3922C3.086 13.1293 3.09507 12.8178 3.24195 12.563C3.82586 11.5502 4.6584 10.703 5.66088 10.1015C6.49409 9.60154 7.42182 9.28508 8.38224 9.1703C9.05971 7.55347 10.157 6.14263 11.565 5.08665C13.1274 3.91483 15.0022 3.23263 16.9524 3.1263ZM17.0224 4.87512C15.4269 4.96709 13.8938 5.52755 12.615 6.48665C11.3295 7.45081 10.3587 8.77451 9.82542 10.2904C9.70571 10.6307 9.38942 10.8626 9.02888 10.8745C8.15786 10.9033 7.30855 11.1537 6.56125 11.6021C6.18131 11.83 5.83412 12.1053 5.52738 12.4202C6.95722 12.8347 8.26779 13.6048 9.33148 14.6685C10.3952 15.7322 11.1653 17.0428 11.5798 18.4726C11.8947 18.1659 12.17 17.8187 12.3979 17.4388C12.8463 16.6914 13.0967 15.8421 13.1255 14.9711C13.1374 14.6106 13.3693 14.2943 13.7096 14.1746C15.2255 13.6413 16.5492 12.6706 17.5133 11.385C18.4724 10.1062 19.0329 8.57308 19.1249 6.97761C19.119 6.42211 18.8958 5.89063 18.5026 5.4974C18.1094 5.10417 17.5779 4.88097 17.0224 4.87512Z" fill="#747D82"/>
<path fill-rule="evenodd" clip-rule="evenodd" d="M7.76196 13.5698C7.99953 13.9907 7.85099 14.5244 7.43017 14.762C6.54118 15.2638 5.82233 16.0198 5.36578 16.9329C5.0161 17.6322 4.8325 18.3994 4.82496 19.175C5.60062 19.1675 6.36776 18.9839 7.06711 18.6342C7.98021 18.1777 8.73616 17.4588 9.23804 16.5698C9.47562 16.149 10.0094 16.0005 10.4302 16.238C10.851 16.4756 10.9995 17.0093 10.762 17.4302C10.0887 18.6227 9.07463 19.587 7.84973 20.1995C6.62484 20.8119 5.24495 21.0446 3.88696 20.8677C3.49338 20.8164 3.18361 20.5066 3.13233 20.113C2.95541 18.755 3.18809 17.3752 3.80053 16.1503C4.41298 14.9254 5.37729 13.9113 6.56983 13.238C6.99065 13.0005 7.52438 13.149 7.76196 13.5698Z" fill="#747D82"/>
<path fill-rule="evenodd" clip-rule="evenodd" d="M13.6742 7.67417C14.0258 7.32254 14.5027 7.125 15 7.125C15.4973 7.125 15.9742 7.32254 16.3258 7.67417C16.6775 8.02581 16.875 8.50272 16.875 9C16.875 9.49728 16.6775 9.97419 16.3258 10.3258C15.9742 10.6775 15.4973 10.875 15 10.875C14.5027 10.875 14.0258 10.6775 13.6742 10.3258C13.3225 9.97419 13.125 9.49728 13.125 9C13.125 8.50272 13.3225 8.02581 13.6742 7.67417ZM15 8.875C14.9668 8.875 14.9351 8.88817 14.9116 8.91161C14.8882 8.93505 14.875 8.96685 14.875 9C14.875 9.03315 14.8882 9.06495 14.9116 9.08839C14.9351 9.11183 14.9668 9.125 15 9.125C15.0332 9.125 15.0649 9.11183 15.0884 9.08839C15.1118 9.06495 15.125 9.03315 15.125 9C15.125 8.96685 15.1118 8.93505 15.0884 8.91161C15.0649 8.88817 15.0332 8.875 15 8.875Z" fill="#747D82"/>
<path d="M16 9C16 9.55228 15.5523 10 15 10C14.4477 10 14 9.55228 14 9C14 8.44772 14.4477 8 15 8C15.5523 8 16 8.44772 16 9Z" fill="#747D82"/>
</svg>
