<svg width="24" height="24" viewBox="0 0 24 24" fill="none" xmlns="http://www.w3.org/2000/svg">
<path fill-rule="evenodd" clip-rule="evenodd" d="M8.67251 3.1886C8.93217 3.0838 9.2263 3.1096 9.46375 3.258L13.2555 5.62785C14.2399 5.29737 15.4009 5.125 16.744 5.125H19C19.4832 5.125 19.875 5.51675 19.875 6V7.286C19.875 7.30059 19.8746 7.31518 19.8739 7.32975C19.8245 8.3172 19.7738 9.2591 19.6202 10.125H20C20.4973 10.125 20.9742 10.3225 21.3258 10.6742C21.6775 11.0258 21.875 11.5027 21.875 12V12.5C21.875 13.0626 21.6551 13.7365 21.3883 14.3615C21.1084 15.0175 20.7256 15.7352 20.301 16.424C19.876 17.1134 19.3989 17.7907 18.924 18.363C18.59 18.7654 18.2328 19.1459 17.875 19.4419V20C17.875 20.4973 17.6775 20.9742 17.3258 21.3258C16.9742 21.6775 16.4973 21.875 16 21.875H8C7.50272 21.875 7.02581 21.6775 6.67418 21.3258C6.32254 20.9742 6.125 20.4973 6.125 20V19.4483C5.22495 18.7291 4.31418 17.5209 3.61851 16.3698C3.20509 15.6858 2.84103 14.9778 2.57736 14.3302C2.32448 13.7091 2.125 13.0512 2.125 12.5V12C2.125 11.5027 2.32254 11.0258 2.67417 10.6742C3.02581 10.3225 3.50272 10.125 4 10.125H4.21847C4.1725 9.76422 4.14157 9.40153 4.12582 9.03787C4.12527 9.02525 4.125 9.01263 4.125 9V8C4.125 7.51675 4.51675 7.125 5 7.125H6.755C6.94556 7.125 7.13175 7.12936 7.31355 7.13806L8.15113 3.78778C8.21904 3.51613 8.41286 3.29339 8.67251 3.1886ZM7.52558 8.90517C7.28487 8.88543 7.02828 8.875 6.755 8.875H5.875V8.98071C5.89223 9.3639 5.9289 9.74582 5.98483 10.125H7.14589C7.19382 9.69615 7.32339 9.28228 7.52558 8.90517ZM5.37334 11.875C5.29266 11.8861 5.21268 11.8857 5.13519 11.875H4C3.96685 11.875 3.93505 11.8882 3.91161 11.9116C3.88817 11.9351 3.875 11.9668 3.875 12V12.5C3.875 12.6988 3.96465 13.0967 4.19817 13.6703C4.4209 14.2173 4.74053 14.843 5.11624 15.4647C5.89243 16.749 6.80445 17.8461 7.46363 18.2579C7.71953 18.4178 7.875 18.6983 7.875 19V20C7.875 20.0332 7.88817 20.0649 7.91161 20.0884C7.93505 20.1118 7.96685 20.125 8 20.125H16C16.0332 20.125 16.0649 20.1118 16.0884 20.0884C16.1118 20.0649 16.125 20.0332 16.125 20V19C16.125 18.6983 16.2804 18.4179 16.5362 18.258C16.7866 18.1015 17.1505 17.7598 17.5773 17.2454C17.9914 16.7465 18.4216 16.1379 18.8113 15.5058C19.2013 14.8729 19.5404 14.2332 19.7788 13.6746C20.0303 13.0851 20.125 12.6874 20.125 12.5V12C20.125 11.9668 20.1118 11.9351 20.0884 11.9116C20.0649 11.8882 20.0332 11.875 20 11.875H18.5204C18.5069 11.8753 18.4933 11.8753 18.4797 11.875H5.37334ZM12.0811 10.125H8.91886C8.98781 9.83429 9.13624 9.56567 9.35095 9.35095C9.43092 9.27098 9.51837 9.2002 9.61166 9.13931C9.65695 9.11763 9.70038 9.09208 9.74141 9.06293C9.97312 8.94062 10.2332 8.875 10.5 8.875C10.6169 8.875 10.7325 8.8876 10.8451 8.91205C10.8763 8.92171 10.9079 8.92955 10.9397 8.93561C11.2055 9.01032 11.4503 9.15225 11.649 9.35095C11.8638 9.56567 12.0122 9.83429 12.0811 10.125ZM13.8541 10.125H17.8372C18.0065 9.36088 18.0659 8.44083 18.125 7.26408V6.875H16.744C14.8076 6.875 13.4943 7.27147 12.6131 7.8684C12.7082 7.94473 12.7995 8.0265 12.8865 8.11351C13.4304 8.65742 13.7695 9.36787 13.8541 10.125ZM10.77 7.13581C10.9744 6.92693 11.1968 6.73327 11.4376 6.55535L9.55695 5.37993L9.05534 7.38634C9.08495 7.39391 9.11439 7.40164 9.14367 7.40953C9.56721 7.22365 10.0285 7.125 10.5 7.125C10.5904 7.125 10.6805 7.12863 10.77 7.13581Z" fill="#747D82"/>
</svg>
