<svg width="24" height="24" viewBox="0 0 24 24" fill="none" xmlns="http://www.w3.org/2000/svg">
<path fill-rule="evenodd" clip-rule="evenodd" d="M11.993 1.127C12.3261 1.127 12.6302 1.31609 12.7776 1.61476L15.66 7.45506L22.1045 8.38905C22.4343 8.43684 22.7083 8.66781 22.8112 8.98475C22.9141 9.30168 22.8281 9.64957 22.5893 9.882L17.9192 14.4279L19.0204 20.8471C19.0767 21.1755 18.9417 21.5074 18.672 21.7031C18.4023 21.8989 18.0449 21.9244 17.7501 21.7691L11.9995 18.7388L6.23519 21.7695C5.94038 21.9245 5.58315 21.8987 5.31369 21.7029C5.04423 21.5071 4.90928 21.1753 4.9656 20.8471L6.06675 14.4279L1.39668 9.882C1.15789 9.64957 1.07186 9.30168 1.17478 8.98475C1.2777 8.66781 1.55171 8.43684 1.8815 8.38905L8.32603 7.45506L11.2084 1.61476C11.3558 1.31609 11.6599 1.127 11.993 1.127ZM11.993 3.97913L9.69165 8.64224C9.56414 8.9006 9.31763 9.07963 9.0325 9.12095L3.88948 9.86632L7.61732 13.495C7.82385 13.696 7.91813 13.9859 7.8694 14.2699L6.99018 19.3954L11.5928 16.9755C11.848 16.8414 12.1529 16.8415 12.4079 16.9759L16.9955 19.3933L16.1166 14.2699C16.0679 13.9859 16.1622 13.696 16.3687 13.495L20.0965 9.86632L14.9535 9.12095C14.6684 9.07963 14.4219 8.9006 14.2944 8.64224L11.993 3.97913Z" fill="#747D82"/>
</svg>
