<svg width="24" height="24" viewBox="0 0 24 24" fill="none" xmlns="http://www.w3.org/2000/svg">
<path d="M13 4C13.2652 4 13.5196 4.10536 13.7071 4.29289C13.8946 4.48043 14 4.73478 14 5H18C18.1505 5 18.2992 5.034 18.4347 5.09945C18.5703 5.1649 18.6894 5.26012 18.783 5.378L18.857 5.486L21.857 10.486L21.912 10.589L21.952 10.696L21.981 10.805L21.997 10.915L22 11V17C22 17.2652 21.8946 17.5196 21.7071 17.7071C21.5196 17.8946 21.2652 18 21 18H19.829C19.622 18.5848 19.2388 19.0912 18.7322 19.4492C18.2256 19.8073 17.6204 19.9996 17 19.9996C16.3796 19.9996 15.7744 19.8073 15.2678 19.4492C14.7612 19.0912 14.378 18.5848 14.171 18H9.829C9.62198 18.5848 9.2388 19.0912 8.73217 19.4492C8.22555 19.8073 7.6204 19.9996 7 19.9996C6.3796 19.9996 5.77445 19.8073 5.26782 19.4492C4.7612 19.0912 4.37802 18.5848 4.171 18H3C2.73478 18 2.48043 17.8946 2.29289 17.7071C2.10536 17.5196 2 17.2652 2 17V6C2 5.46957 2.21071 4.96086 2.58579 4.58579C2.96086 4.21071 3.46957 4 4 4H13ZM7 16C6.73478 16 6.48043 16.1054 6.29289 16.2929C6.10536 16.4804 6 16.7348 6 17C6 17.2652 6.10536 17.5196 6.29289 17.7071C6.48043 17.8946 6.73478 18 7 18C7.26522 18 7.51957 17.8946 7.70711 17.7071C7.89464 17.5196 8 17.2652 8 17C8 16.7348 7.89464 16.4804 7.70711 16.2929C7.51957 16.1054 7.26522 16 7 16ZM17 16C16.7348 16 16.4804 16.1054 16.2929 16.2929C16.1054 16.4804 16 16.7348 16 17C16 17.2652 16.1054 17.5196 16.2929 17.7071C16.4804 17.8946 16.7348 18 17 18C17.2652 18 17.5196 17.8946 17.7071 17.7071C17.8946 17.5196 18 17.2652 18 17C18 16.7348 17.8946 16.4804 17.7071 16.2929C17.5196 16.1054 17.2652 16 17 16ZM17.434 7H14V10H19.234L17.434 7Z" fill="#FF7A4A"/>
</svg>
